<?xml version="1.0" encoding="UTF-8"?>
<svg xmlns="http://www.w3.org/2000/svg" id="Ebene_1" data-name="Ebene 1" viewBox="0 0 210.32 51.04">
  <defs>
    <style>.cls-1{fill:#009bb4}.cls-2{fill:#00243a}</style>
  </defs>
  <path class="cls-1" d="M45.59 51a7.87 7.87 0 01-2.86-5.85 7.55 7.55 0 01.16-1.49 6.74 6.74 0 01.49-1.5 7.88 7.88 0 01.89-1.5 11.37 11.37 0 011.35-1.49l.62.64a7.26 7.26 0 00-2.4 5.26 6.53 6.53 0 00.61 2.77 8.46 8.46 0 001.79 2.5zM49 39.21a7.93 7.93 0 012.9 5.89 7.53 7.53 0 01-.14 1.39A7.3 7.3 0 0151.3 48a8.74 8.74 0 01-.89 1.53A10.22 10.22 0 0149 51l-.63-.63a8.52 8.52 0 001.8-2.5 6.46 6.46 0 00.6-2.73 7.27 7.27 0 00-2.4-5.3zm11.39 5.23h-5.32v-.91h5.32zm0 2.15h-5.32v-.91h5.32zm.95-4.31l.67-.69 4.17 3.47L62 48.54l-.67-.68 3.38-2.78z"></path>
  <path class="cls-2" d="M74.52 46.25a2.18 2.18 0 01-.23 1 2.07 2.07 0 01-.66.72 3 3 0 01-1 .43 5.37 5.37 0 01-1.31.14h-.64l-.61-.06-.56-.09-.51-.12v-1.06a5.73 5.73 0 001 .27 7.35 7.35 0 001.31.1 4.66 4.66 0 00.91-.08 1.87 1.87 0 00.62-.25 1 1 0 00.34-.4 1.33 1.33 0 00.11-.54.87.87 0 00-.18-.56 1.81 1.81 0 00-.48-.42A4.78 4.78 0 0072 45l-.78-.31-.78-.35a3.27 3.27 0 01-.67-.45 2.19 2.19 0 01-.49-.6 1.81 1.81 0 01-.18-.83 2 2 0 01.18-.82 1.9 1.9 0 01.54-.71 2.74 2.74 0 01.93-.51 4.62 4.62 0 011.37-.19h.93l.48.08.44.09v1a6.43 6.43 0 00-1-.2 6 6 0 00-.92-.08 2.45 2.45 0 00-1.4.32 1 1 0 00-.45.85.88.88 0 00.19.56 1.84 1.84 0 00.48.43 4.31 4.31 0 00.68.33l.77.32a6.86 6.86 0 01.78.35 3 3 0 01.68.46 2 2 0 01.48.61 1.86 1.86 0 01.26.9zm7.16-.97a4 4 0 01-.21 1.33 3 3 0 01-.58 1 2.62 2.62 0 01-.94.66 3.13 3.13 0 01-1.25.24 3.43 3.43 0 01-1.2-.2 2.48 2.48 0 01-.9-.61 2.71 2.71 0 01-.56-1 4.44 4.44 0 01-.2-1.37 3.89 3.89 0 01.21-1.32 2.88 2.88 0 01.58-1 2.65 2.65 0 01.94-.67 3.1 3.1 0 011.25-.24 3.21 3.21 0 011.2.21 2.41 2.41 0 01.9.6 2.77 2.77 0 01.56 1 4.33 4.33 0 01.2 1.37zm-1.1 0a3.81 3.81 0 00-.13-1 2.43 2.43 0 00-.36-.72 1.55 1.55 0 00-.58-.43 2 2 0 00-1.58 0 1.71 1.71 0 00-.56.51 1.94 1.94 0 00-.32.73 3.6 3.6 0 00-.11.88 3.75 3.75 0 00.13 1 2.21 2.21 0 00.36.72 1.51 1.51 0 00.57.44 2.06 2.06 0 00.76.14 1.67 1.67 0 00.83-.19 1.58 1.58 0 00.56-.5 2.16 2.16 0 00.32-.74 3.6 3.6 0 00.11-.79zm8.35-4.59a7.21 7.21 0 00-1.46-.18C86.5 40.51 86 41 86 42v1.09h2.73V44H86v4.42h-1.1V44h-2v-.9h2v-1c0-1.66.87-2.49 2.59-2.49a7.65 7.65 0 011.43.15zm6.71 7.66a4.85 4.85 0 01-.76.14h-.79a2.53 2.53 0 01-1.75-.49 2.09 2.09 0 01-.58-1.63v-3.25H90v-.9h1.74v-1.71l1.08-.28v2h2.8v.9h-2.8v3.17a1.32 1.32 0 00.36 1 1.47 1.47 0 001 .33 5.27 5.27 0 00.65 0 5.71 5.71 0 00.74-.15zm7.88-6.13l-.91 6.22h-1.3l-.9-2.6-.18-.63-.21.67-.86 2.56h-1.27L97 42.22h1.06l.52 4.23.11.94.26-.83.91-2.79h.77l1 2.76.27.82.1-.87.48-4.26zm5.23 6.22v-.84a3.32 3.32 0 01-1 .73 3 3 0 01-2 .09 1.67 1.67 0 01-.62-.38 1.29 1.29 0 01-.36-.56 2 2 0 01-.12-.7 1.74 1.74 0 01.7-1.46 3.33 3.33 0 012.06-.53h1.29v-.55a1.16 1.16 0 00-.35-.88 1.55 1.55 0 00-1.15-.36 4.54 4.54 0 00-1 .11 7.19 7.19 0 00-1.06.34v-1l.46-.15.53-.13.58-.09h.61a4 4 0 011 .12 2.06 2.06 0 01.77.38 1.83 1.83 0 01.48.64 2.29 2.29 0 01.16.9v4.29zm-.12-2.83h-1.37a2.73 2.73 0 00-.69.08 1.19 1.19 0 00-.48.23 1 1 0 00-.28.36 1.11 1.11 0 00-.09.46 1 1 0 00.06.35.88.88 0 00.18.29.92.92 0 00.32.2 1.35 1.35 0 00.48.07 2.06 2.06 0 00.86-.22 4.15 4.15 0 001-.72zm3.25-3.39h1v1.15a3.73 3.73 0 011.09-1 2.21 2.21 0 011.08-.3 1.79 1.79 0 011.47.62 2.85 2.85 0 01.46 1.86h-1.08a2 2 0 00-.24-1.18.85.85 0 00-.75-.37 1.14 1.14 0 00-.44.08 1.64 1.64 0 00-.45.24 4.63 4.63 0 00-.5.44c-.17.18-.35.39-.55.64v4h-1.09zM123.92 45v.39a2.64 2.64 0 010 .29h-4.36a1.91 1.91 0 00.53 1.46 2.14 2.14 0 001.54.51 4.87 4.87 0 00.54 0 4.52 4.52 0 00.53-.06l.48-.08.44-.1v.88a8 8 0 01-1 .21 8.56 8.56 0 01-1.15.07 4.09 4.09 0 01-1.38-.21 2.51 2.51 0 01-.94-.63 2.6 2.6 0 01-.55-1 5.11 5.11 0 01-.17-1.36 3.92 3.92 0 01.19-1.24 3.09 3.09 0 01.55-1 2.66 2.66 0 01.89-.7 2.7 2.7 0 011.19-.26 3.2 3.2 0 011.16.2 2.38 2.38 0 01.84.58 2.41 2.41 0 01.52.91 3.78 3.78 0 01.15 1.14zm-1.12-.15a2.61 2.61 0 00-.08-.76 1.58 1.58 0 00-.31-.59 1.35 1.35 0 00-.52-.39 1.74 1.74 0 00-.72-.14 1.37 1.37 0 00-.64.14 1.55 1.55 0 00-.5.38 1.84 1.84 0 00-.34.6 2.56 2.56 0 00-.16.76zm7.51 3.59h-4.61v-8.1h4.61v.93h-3.5v2.51h3.36v.93h-3.36v2.79h3.5zm1.74-6.22h1v1a4.41 4.41 0 01.53-.53 3 3 0 01.5-.35 2.43 2.43 0 01.49-.18 3.07 3.07 0 01.53 0 1.86 1.86 0 011.46.56 2.6 2.6 0 01.49 1.71v4.06H136v-4a1.75 1.75 0 00-.27-1.08 1 1 0 00-.81-.35 1.23 1.23 0 00-.39.06 1.36 1.36 0 00-.4.2 4.58 4.58 0 00-.44.39c-.16.17-.34.38-.54.62v4.13h-1.07zM144 48.35a4.64 4.64 0 01-.76.14h-.79a2.54 2.54 0 01-1.75-.53 2.12 2.12 0 01-.57-1.63v-3.21h-1.74v-.9h1.74v-1.71l1.07-.28v2h2.8v.9h-2.8v3.17a1.32 1.32 0 00.36 1 1.5 1.5 0 001.05.33 5.13 5.13 0 00.65 0 5.4 5.4 0 00.74-.15zm7.92-6.13l-.9 6.22h-1.31l-.9-2.6-.18-.63-.2.67-.87 2.56h-1.27l-.9-6.22h1.06l.52 4.23.11.94.27-.83.9-2.79h.75l1 2.76.28.82.09-.87.48-4.26zm3.34.89h-1.84v-.89h2.93v5.32h1.86v.9h-5v-.9h2zm.38-3.5a.72.72 0 01.33.07.64.64 0 01.27.18.8.8 0 01.18.27.72.72 0 01.07.33.75.75 0 01-.07.33.8.8 0 01-.18.27.64.64 0 01-.27.18.81.81 0 01-.66 0 .64.64 0 01-.27-.18.8.8 0 01-.18-.27.75.75 0 01-.07-.33.72.72 0 01.07-.33.8.8 0 01.18-.27.64.64 0 01.27-.18.72.72 0 01.33-.07zm8.89 8.6a4.4 4.4 0 01-.86.24 5.62 5.62 0 01-.92.08 3.08 3.08 0 01-2.27-.8 3.17 3.17 0 01-.8-2.34 3.85 3.85 0 01.23-1.34 3 3 0 01.65-1 2.61 2.61 0 011-.66 3.27 3.27 0 011.27-.24 6.32 6.32 0 01.9.07 4.19 4.19 0 01.81.22v1a3.25 3.25 0 00-.82-.3 3.57 3.57 0 00-.87-.1 1.91 1.91 0 00-.78.16 2 2 0 00-.65.45 2.29 2.29 0 00-.44.73 2.67 2.67 0 00-.16 1 2.28 2.28 0 00.55 1.68 2 2 0 001.52.56 4 4 0 00.85-.09 3.86 3.86 0 00.8-.3zm7.35.23h-1.48l-2.9-3.33v3.33h-1.08v-8.75h1.08v5.37l2.8-2.84h1.42l-2.92 2.87zm3.54-7.87h-1.84v-.88h2.93v7.85h1.85v.9h-5v-.9h2zm9.58 7.87h-1v-1a6.59 6.59 0 01-.53.53 2.86 2.86 0 01-.5.35 2 2 0 01-.5.18 2.27 2.27 0 01-.53 0 1.81 1.81 0 01-1.44-.5 2.52 2.52 0 01-.49-1.7v-4.08h1.08v4c0 .95.36 1.43 1.08 1.43a1.21 1.21 0 00.38-.06 1.66 1.66 0 00.4-.2 3.09 3.09 0 00.45-.4 7.84 7.84 0 00.53-.62v-4.15H185zm2-6.22h1v1a4.41 4.41 0 01.53-.53 3.46 3.46 0 01.49-.35 2.51 2.51 0 01.5-.18 3.07 3.07 0 01.53 0 1.83 1.83 0 011.45.56 2.55 2.55 0 01.5 1.71v4.06h-1v-4a1.75 1.75 0 00-.27-1.08 1 1 0 00-.82-.35 1.21 1.21 0 00-.38.06 1.36 1.36 0 00-.4.2 4.58 4.58 0 00-.44.39c-.16.17-.34.38-.54.62v4.13H187zm11.47.88a1.42 1.42 0 01.27.5 2.19 2.19 0 01.1.63 2.13 2.13 0 01-.18.88 2 2 0 01-.5.69 2.42 2.42 0 01-.77.44 3.11 3.11 0 01-1 .16 2.86 2.86 0 01-.73-.09 1.75 1.75 0 01-.54-.2 2.36 2.36 0 00-.2.32.82.82 0 00-.08.35.46.46 0 00.23.39 1.14 1.14 0 00.59.17l1.64.06a3.8 3.8 0 01.86.12 2.07 2.07 0 01.67.3 1.37 1.37 0 01.6 1.17 1.75 1.75 0 01-.18.78 1.8 1.8 0 01-.55.66 2.89 2.89 0 01-1 .45 5.05 5.05 0 01-1.37.16 5.89 5.89 0 01-1.29-.12 2.93 2.93 0 01-.87-.33 1.35 1.35 0 01-.5-.51 1.41 1.41 0 01-.15-.65 1.48 1.48 0 01.21-.79 2.38 2.38 0 01.65-.66 1.12 1.12 0 01-.28-.18 1.1 1.1 0 01-.19-.25 1 1 0 01-.11-.28 1 1 0 010-.29 1.46 1.46 0 01.19-.74 4.53 4.53 0 01.45-.63c-.08-.1-.15-.19-.21-.28a1.59 1.59 0 01-.15-.29 1.33 1.33 0 01-.1-.34 2.72 2.72 0 010-.42 2.18 2.18 0 01.18-.89 2 2 0 01.5-.68 2.11 2.11 0 01.76-.44 2.91 2.91 0 011-.16 3.15 3.15 0 01.44 0 3 3 0 01.37.08h2.26v.88zm-3.74 6.24a.67.67 0 00.45.64 3.21 3.21 0 001.28.2 3.63 3.63 0 00.87-.09 1.53 1.53 0 00.56-.25 1 1 0 00.31-.34 1 1 0 00.09-.4.6.6 0 00-.31-.56 2.15 2.15 0 00-.95-.21l-1.62-.06a2.69 2.69 0 00-.34.27 1.5 1.5 0 00-.21.26 1 1 0 00-.1.27 1.24 1.24 0 00-.03.27zm.33-5.09a1.63 1.63 0 00.09.55 1.34 1.34 0 00.28.42 1.26 1.26 0 00.43.27 1.53 1.53 0 00.54.1 1.45 1.45 0 00.57-.11 1.19 1.19 0 00.42-.3 1.1 1.1 0 00.26-.43 1.39 1.39 0 00.09-.5 1.33 1.33 0 00-.1-.54 1 1 0 00-.27-.42 1.21 1.21 0 00-.43-.27 1.33 1.33 0 00-.54-.1 1.41 1.41 0 00-.57.11 1.33 1.33 0 00-.43.3 1.29 1.29 0 00-.26.42 1.42 1.42 0 00-.08.5z"></path>
  <path class="cls-1" d="M204 51a7.84 7.84 0 01-2.86-5.85 7.53 7.53 0 01.15-1.49 7.3 7.3 0 01.49-1.5 8.44 8.44 0 01.89-1.5 11.37 11.37 0 011.33-1.45l.63.64a7.24 7.24 0 00-2.41 5.26 6.69 6.69 0 00.61 2.77 8.5 8.5 0 001.8 2.5zm3.46-11.79a7.9 7.9 0 012.86 5.89 7.25 7.25 0 01-.6 2.86 8.66 8.66 0 01-.88 1.53 10.32 10.32 0 01-1.4 1.55l-.63-.63a8.56 8.56 0 001.81-2.5 6.61 6.61 0 00.59-2.73 7.27 7.27 0 00-2.4-5.3zM42.73 30.09V1.31a1 1 0 01.48-.86 2.06 2.06 0 011.21-.33 2.17 2.17 0 011.23.33 1 1 0 01.5.87v13.44a6.34 6.34 0 012.13-2.25 5.81 5.81 0 013.25-.92 6.86 6.86 0 015.18 2.32 7.88 7.88 0 012.18 5.57v4.19a8.06 8.06 0 01-2.18 5.55 6.62 6.62 0 01-5.06 2.43 6.39 6.39 0 01-3.41-1A6 6 0 0146 28.4v1.67a1.1 1.1 0 01-.47.87 1.72 1.72 0 01-1.09.38 1.9 1.9 0 01-1.21-.32 1.07 1.07 0 01-.5-.91zm3.42-5.33a3.7 3.7 0 001.43 2.39 4.58 4.58 0 003.25 1.37A4.31 4.31 0 0054.08 27a4.81 4.81 0 001.4-3.37v-4.14a4.68 4.68 0 00-1.4-3.3 4.37 4.37 0 00-3.29-1.48A4.62 4.62 0 0047.54 16a4.56 4.56 0 00-1.39 3.45zM64 30.09V1.27a1 1 0 01.47-.86 2.06 2.06 0 011.22-.33 2.18 2.18 0 011.24.33 1 1 0 01.49.86v28.82a1.08 1.08 0 01-.51.84 2 2 0 01-1.22.39A1.92 1.92 0 0164.5 31a1.07 1.07 0 01-.5-.91zm9.07-6.33V13.07a1 1 0 01.51-.86 2 2 0 011.22-.37 1.92 1.92 0 011.17.39 1.08 1.08 0 01.51.84v10.66a4.73 4.73 0 001.4 3.32 4.48 4.48 0 006.62 0 4.69 4.69 0 001.39-3.34V13a1 1 0 01.52-.82 2 2 0 011.21-.37 1.93 1.93 0 011.21.35 1 1 0 01.47.84v10.76a7.49 7.49 0 01-2.4 5.52 7.83 7.83 0 01-5.69 2.37 7.91 7.91 0 01-5.74-2.37 7.49 7.49 0 01-2.4-5.52zm21.01-.09v-4.31a7.35 7.35 0 012.41-5.47 8.07 8.07 0 015.77-2.3 7.94 7.94 0 015.55 2.15 7 7 0 012.34 5.37 5.46 5.46 0 01-.28 1.94 2 2 0 01-.89 1 3.61 3.61 0 01-1.11.39 8.45 8.45 0 01-1.37.08h-9v1.28a4.47 4.47 0 001.62 3.61 7.13 7.13 0 006.57.95 9.91 9.91 0 001.63-.8 2 2 0 011-.39 1.22 1.22 0 011 .51 1.68 1.68 0 01.41 1.05c0 .63-.62 1.27-1.87 1.93a11.07 11.07 0 01-11.2-1.21 7.26 7.26 0 01-2.58-5.78zm3.42-3.45h7.6a2.66 2.66 0 001.44-.27 1.22 1.22 0 00.37-1 4.53 4.53 0 00-1.36-3.25 4.46 4.46 0 00-3.33-1.4 4.7 4.7 0 00-3.33 1.3 4.16 4.16 0 00-1.39 3.18zm17.22 9.87V1.31a1 1 0 01.48-.86 2.06 2.06 0 011.21-.33 2.17 2.17 0 011.23.33 1 1 0 01.5.87v13.44a6 6 0 012.07-2.25 5.78 5.78 0 013.27-.92 6.69 6.69 0 015.07 2.32 7.9 7.9 0 012.16 5.57v10.61a1 1 0 01-.51.9 2.19 2.19 0 01-1.21.33 2.16 2.16 0 01-1.18-.33 1 1 0 01-.51-.9V19.51a4.71 4.71 0 00-1.4-3.32 4.4 4.4 0 00-3.28-1.48 4.35 4.35 0 00-3.13 1.34 4.65 4.65 0 00-1.35 3.46v10.58a1.1 1.1 0 01-.52.84 2 2 0 01-1.21.39 1.9 1.9 0 01-1.19-.37 1.07 1.07 0 01-.5-.86zM135 26.23a4.6 4.6 0 012.47-4.5 16.09 16.09 0 017.15-1.26h2v-.87a5.91 5.91 0 00-1.13-3.6 3.93 3.93 0 00-3.49-1.53 7.11 7.11 0 00-3 .61 9.63 9.63 0 01-1.44.62 1 1 0 01-.92-.55 2.11 2.11 0 01-.35-1.18c0-.63.62-1.18 1.87-1.66a10.91 10.91 0 014-.72q4 0 5.94 2.28a8.53 8.53 0 011.9 5.69v10.53a1.07 1.07 0 01-.47.88 2 2 0 01-1.21.35 1.77 1.77 0 01-1.11-.34 1 1 0 01-.45-.86v-1.6a8.27 8.27 0 01-6.21 3.13 5.76 5.76 0 01-4-1.39 5.16 5.16 0 01-1.55-4.03zm3.45-.38a3 3 0 00.87 2.33 3.25 3.25 0 002.3.8 5.11 5.11 0 003.35-1.4 3.87 3.87 0 001.62-2.85v-2.17h-1.44c-.79 0-1.48 0-2.05.07a13 13 0 00-1.79.25 4.65 4.65 0 00-1.52.54 2.7 2.7 0 00-1 1 2.81 2.81 0 00-.38 1.43zm16.97 4.24V13a1 1 0 01.47-.86 2.06 2.06 0 011.21-.33 1.8 1.8 0 011.09.35 1 1 0 01.47.86v1.71a5.61 5.61 0 012.12-2.25 6.24 6.24 0 013.39-.92 6.71 6.71 0 015.08 2.32 7.89 7.89 0 012.15 5.57v10.64a1 1 0 01-.51.9 2.19 2.19 0 01-1.21.33 2.11 2.11 0 01-1.17-.33 1 1 0 01-.52-.9V19.51a4.7 4.7 0 00-1.39-3.32 4.42 4.42 0 00-3.29-1.48 4.35 4.35 0 00-3.13 1.34 4.65 4.65 0 00-1.35 3.46v10.58a1.07 1.07 0 01-.54.84 2 2 0 01-1.19.39 1.92 1.92 0 01-1.19-.37 1.07 1.07 0 01-.49-.86zm20.74-6.42v-4.19a7.84 7.84 0 012.18-5.57 6.86 6.86 0 015.18-2.32 5.78 5.78 0 013.24.92 6.37 6.37 0 012.14 2.25V1.32a1 1 0 01.49-.87 2.18 2.18 0 011.24-.33 2.08 2.08 0 011.21.33 1 1 0 01.47.86v28.78a1.06 1.06 0 01-.49.86 1.92 1.92 0 01-1.19.37 1.7 1.7 0 01-1.09-.38 1.09 1.09 0 01-.48-.87V28.4a5.89 5.89 0 01-2.26 2.29 6.37 6.37 0 01-3.41 1 6.6 6.6 0 01-5-2.43 8 8 0 01-2.23-5.59zm3.41 0A4.81 4.81 0 00181 27a4.29 4.29 0 003.24 1.49 4.56 4.56 0 003.25-1.37 3.68 3.68 0 001.44-2.39v-5.24a4.66 4.66 0 00-4.64-4.78 4.37 4.37 0 00-3.29 1.48 4.68 4.68 0 00-1.4 3.3zm17.11 4.85a1.78 1.78 0 01.35-1 1 1 0 01.84-.52 1.74 1.74 0 01.94.52 7.35 7.35 0 001.77 1 6.83 6.83 0 002.71.5 4.72 4.72 0 003-.75 2.31 2.31 0 00.93-1.87 2.64 2.64 0 00-1-2.18 6.93 6.93 0 00-2.56-1.22c-1-.28-2-.58-3-.91a5.76 5.76 0 01-2.5-1.67 4.44 4.44 0 01-1-3.07 5.54 5.54 0 011.66-4 6.83 6.83 0 015.08-1.69 11.6 11.6 0 014 .66c1.2.44 1.8.94 1.8 1.49a2.13 2.13 0 01-.39 1.11 1.13 1.13 0 01-1 .62 9.56 9.56 0 01-1.58-.61 7.23 7.23 0 00-2.82-.6 3.87 3.87 0 00-2.81.9 2.71 2.71 0 00-.93 2 2.06 2.06 0 001 1.83 8.41 8.41 0 002.53 1 30 30 0 013 .91 5.59 5.59 0 012.5 1.85 5.33 5.33 0 011 3.39 4.86 4.86 0 01-1.81 4 7.79 7.79 0 01-5.05 1.47 10.38 10.38 0 01-4.77-1c-1.24-.68-1.89-1.42-1.89-2.16z"></path>
  <rect class="cls-2" x="22.82" width="8.5" height="8.5" rx="1.42"></rect>
  <rect class="cls-2" x="22.82" y="11.41" width="8.5" height="8.5" rx="1.42"></rect>
  <rect class="cls-2" x="22.82" y="22.81" width="8.5" height="8.5" rx="1.42"></rect>
  <rect class="cls-2" x="11.41" width="8.5" height="8.5" rx="1.42"></rect>
  <rect class="cls-1" x="11.41" y="11.41" width="8.5" height="8.5" rx="1.42"></rect>
  <rect class="cls-1" x="11.41" y="22.81" width="8.5" height="8.5" rx="1.42"></rect>
  <rect class="cls-1" width="8.5" height="8.5" rx="1.42"></rect>
  <rect class="cls-1" y="11.41" width="8.5" height="8.5" rx="1.42"></rect>
  <rect class="cls-1" y="22.81" width="8.5" height="8.5" rx="1.42"></rect>
</svg>
